<svg width="48" height="48" viewBox="0 0 48 48" fill="none" xmlns="http://www.w3.org/2000/svg">
<mask id="mask0_204_261" style="mask-type:alpha" maskUnits="userSpaceOnUse" x="0" y="0" width="48" height="48">
<rect width="48" height="48" fill="white" fill-opacity="0.9"/>
</mask>
<g mask="url(#mask0_204_261)">
<path d="M4 40V34H8V12C8 10.9 8.39167 9.95833 9.175 9.175C9.95833 8.39167 10.9 8 12 8H42V12H12V34H24V40H4ZM30 40C29.4333 40 28.9583 39.8083 28.575 39.425C28.1917 39.0417 28 38.5667 28 38V18C28 17.4333 28.1917 16.9583 28.575 16.575C28.9583 16.1917 29.4333 16 30 16H42C42.5667 16 43.0417 16.1917 43.425 16.575C43.8083 16.9583 44 17.4333 44 18V38C44 38.5667 43.8083 39.0417 43.425 39.425C43.0417 39.8083 42.5667 40 42 40H30Z" fill="white" fill-opacity="0.9"/>
</g>
</svg>
