<svg width="49" height="48" viewBox="0 0 49 48" fill="none" xmlns="http://www.w3.org/2000/svg">
<mask id="mask0_210_372" style="mask-type:alpha" maskUnits="userSpaceOnUse" x="0" y="0" width="49" height="48">
<rect x="0.5" width="48" height="48" fill="white" fill-opacity="0.9"/>
</mask>
<g mask="url(#mask0_210_372)">
<path d="M21.5 30H27.5L26.35 23.55C27.0167 23.2167 27.5417 22.7333 27.925 22.1C28.3083 21.4667 28.5 20.7667 28.5 20C28.5 18.9 28.1083 17.9583 27.325 17.175C26.5417 16.3917 25.6 16 24.5 16C23.4 16 22.4583 16.3917 21.675 17.175C20.8917 17.9583 20.5 18.9 20.5 20C20.5 20.7667 20.6917 21.4667 21.075 22.1C21.4583 22.7333 21.9833 23.2167 22.65 23.55L21.5 30ZM24.5 44C19.8667 42.8333 16.0417 40.175 13.025 36.025C10.0083 31.875 8.5 27.2667 8.5 22.2V10L24.5 4L40.5 10V22.2C40.5 27.2667 38.9917 31.875 35.975 36.025C32.9583 40.175 29.1333 42.8333 24.5 44Z" fill="white" fill-opacity="0.9"/>
</g>
</svg>
