<svg width="24" height="24" viewBox="0 0 24 24" fill="none" xmlns="http://www.w3.org/2000/svg">
<path d="M21.0685 3.85327H2.93155C1.31516 3.85327 0 5.16844 0 6.78482V17.215C0 18.8314 1.31516 20.1465 2.93155 20.1465H21.0685C22.6848 20.1465 24 18.8314 24 17.215V6.78514C24.0003 5.16844 22.6852 3.85327 21.0685 3.85327ZM19.636 5.76577L12 10.6854L4.36401 5.76577H19.636ZM21.0685 18.2343H2.93155C2.36959 18.2343 1.9125 17.7769 1.9125 17.2153V6.83933L11.41 12.9466C11.4227 12.9546 11.4364 12.96 11.4495 12.9673C11.4632 12.975 11.4772 12.9823 11.4913 12.9893C11.5649 13.0272 11.6408 13.0578 11.7182 13.0779C11.7262 13.0801 11.7342 13.0811 11.7421 13.083C11.8272 13.1031 11.9133 13.1155 11.9994 13.1155H12C12.0006 13.1155 12.0013 13.1155 12.0013 13.1155C12.0873 13.1155 12.1734 13.1034 12.2585 13.083C12.2665 13.0811 12.2744 13.0801 12.2824 13.0779C12.3599 13.0578 12.4354 13.0272 12.5094 12.9893C12.5234 12.9823 12.5374 12.975 12.5511 12.9673C12.5642 12.96 12.5779 12.9546 12.5906 12.9466L22.0881 6.83933V17.215C22.0878 17.7769 21.6304 18.2343 21.0685 18.2343Z" fill="white"/>
</svg>
