<svg width="49" height="48" viewBox="0 0 49 48" fill="none" xmlns="http://www.w3.org/2000/svg">
<mask id="mask0_204_270" style="mask-type:alpha" maskUnits="userSpaceOnUse" x="0" y="0" width="49" height="48">
<rect x="0.5" width="48" height="48" fill="white" fill-opacity="0.9"/>
</mask>
<g mask="url(#mask0_204_270)">
<path d="M29 42.8C28.2333 43.5667 27.2833 43.95 26.15 43.95C25.0167 43.95 24.0667 43.5667 23.3 42.8L5.7 25.2C5.33333 24.8333 5.04167 24.4 4.825 23.9C4.60833 23.4 4.5 22.8667 4.5 22.3V8C4.5 6.9 4.89167 5.95833 5.675 5.175C6.45833 4.39167 7.4 4 8.5 4H22.8C23.3667 4 23.9 4.10833 24.4 4.325C24.9 4.54167 25.3333 4.83333 25.7 5.2L43.3 22.85C44.0667 23.6167 44.45 24.5583 44.45 25.675C44.45 26.7917 44.0667 27.7333 43.3 28.5L29 42.8ZM13.5 16C14.3333 16 15.0417 15.7083 15.625 15.125C16.2083 14.5417 16.5 13.8333 16.5 13C16.5 12.1667 16.2083 11.4583 15.625 10.875C15.0417 10.2917 14.3333 10 13.5 10C12.6667 10 11.9583 10.2917 11.375 10.875C10.7917 11.4583 10.5 12.1667 10.5 13C10.5 13.8333 10.7917 14.5417 11.375 15.125C11.9583 15.7083 12.6667 16 13.5 16Z" fill="white" fill-opacity="0.9"/>
</g>
</svg>
