<svg width="24" height="24" viewBox="0 0 24 24" fill="none" xmlns="http://www.w3.org/2000/svg">
<path d="M20.2949 3.65008C20.2949 3.65008 22.1451 2.91422 21.9909 4.70131C21.9395 5.43717 21.477 8.01267 21.1172 10.7984L19.8838 19.0506C19.8838 19.0506 19.781 20.2595 18.8559 20.4697C17.9308 20.6799 16.5432 19.7339 16.2862 19.5236C16.0807 19.3659 12.4318 17.0007 11.147 15.8443C10.7872 15.5289 10.3761 14.8982 11.1983 14.1623L16.5946 8.90624C17.2113 8.27549 17.8281 6.80378 15.2584 8.59086L8.06339 13.5842C8.06339 13.5842 7.2411 14.1098 5.69934 13.6368L2.35877 12.5855C2.35877 12.5855 1.12534 11.7971 3.23245 11.0087C8.37177 8.53826 14.6931 6.01532 20.2949 3.65008Z" fill="white"/>
</svg>
