<svg width="48" height="48" viewBox="0 0 48 48" fill="none" xmlns="http://www.w3.org/2000/svg">
<mask id="mask0_210_375" style="mask-type:alpha" maskUnits="userSpaceOnUse" x="0" y="0" width="48" height="48">
<rect width="48" height="48" fill="white" fill-opacity="0.9"/>
</mask>
<g mask="url(#mask0_210_375)">
<path d="M22 38.95L12 33.2C11.3667 32.8333 10.875 32.3417 10.525 31.725C10.175 31.1083 10 30.45 10 29.75V18.25C10 17.55 10.175 16.8917 10.525 16.275C10.875 15.6583 11.3667 15.1667 12 14.8L22 9.05C22.6333 8.68333 23.3 8.5 24 8.5C24.7 8.5 25.3667 8.68333 26 9.05L36 14.8C36.6333 15.1667 37.125 15.6583 37.475 16.275C37.825 16.8917 38 17.55 38 18.25V29.75C38 30.45 37.825 31.1083 37.475 31.725C37.125 32.3417 36.6333 32.8333 36 33.2L26 38.95C25.3667 39.3167 24.7 39.5 24 39.5C23.3 39.5 22.6333 39.3167 22 38.95ZM4 14V8C4 6.9 4.39167 5.95833 5.175 5.175C5.95833 4.39167 6.9 4 8 4H14V8H8V14H4ZM14 44H8C6.9 44 5.95833 43.6083 5.175 42.825C4.39167 42.0417 4 41.1 4 40V34H8V40H14V44ZM34 44V40H40V34H44V40C44 41.1 43.6083 42.0417 42.825 42.825C42.0417 43.6083 41.1 44 40 44H34ZM40 14V8H34V4H40C41.1 4 42.0417 4.39167 42.825 5.175C43.6083 5.95833 44 6.9 44 8V14H40ZM16.1 17.05L14 18.25V20.5L22 25.15V34.35L24 35.5L26 34.35V25.15L34 20.5V18.25L31.9 17.05L24 21.7L16.1 17.05Z" fill="white" fill-opacity="0.9"/>
</g>
</svg>
